<svg width="40" height="40" fill="none" xmlns="http://www.w3.org/2000/svg"><path fill="#F16718" d="M0 0h40v40H0z"/><path fill-rule="evenodd" clip-rule="evenodd" d="M10.6302 16.7014c0 .1886-.1062.2986-.2883.2986H8.0655c-.1821 0-.2883-.11-.2883-.2986v-8.03c0-.0785-.0456-.1257-.1214-.1257H5.2882c-.182 0-.2883-.11-.2883-.2986V6.2986C5 6.11 5.1062 6 5.2883 6h7.9066c.1821 0 .2883.11.2883.2986V8.247c0 .1886-.1062.2986-.2883.2986h-2.4433c-.0759 0-.1214.0472-.1214.1257v8.03Zm6.5711 0c0 .1886-.1063.2986-.2884.2986h-2.2763c-.1821 0-.2884-.11-.2884-.2986V6.2986c0-.1886.1063-.2986.2884-.2986h2.2612c.1517 0 .2731.0629.349.2043L19.0831 9.3c.0455.0943.1365.0943.1821 0l1.8362-3.0957c.0759-.1414.1973-.2043.3491-.2043h2.2612c.1821 0 .2883.11.2883.2986v10.4028c0 .1886-.1062.2986-.2883.2986h-2.2764c-.1821 0-.2883-.11-.2883-.2986v-5.5471c0-.1257-.0911-.1414-.1518-.0472l-.9409 1.6186c-.0759.1414-.1973.2043-.349.2043H18.643c-.1518 0-.2732-.0629-.3491-.2043l-.9409-1.6186c-.0607-.0942-.1517-.0785-.1517.0472v5.5471Z" fill="#fff"/></svg>